<?xml version="1.0" encoding="utf-8"?>
<!-- Generator: Adobe Illustrator 24.3.0, SVG Export Plug-In . SVG Version: 6.00 Build 0)  -->
<svg version="1.1" id="Layer_1" xmlns="http://www.w3.org/2000/svg" xmlns:xlink="http://www.w3.org/1999/xlink" x="0px" y="0px"
	 viewBox="0 0 20 20" style="enable-background:new 0 0 20 20;" xml:space="preserve">
<style type="text/css">
	.st0{fill-rule:evenodd;clip-rule:evenodd;fill:#FFFFFF;}
</style>
<path id="globe_x5F_network-_x5B__x23_1294_x5D_" class="st0" d="M12.3,17.7c1.3-2.1,2-4.3,2.2-6.7h3.4
	C17.5,14.2,15.3,16.8,12.3,17.7 M10,17.5c-1.4-1.9-2.3-4.2-2.5-6.5h5C12.3,13.3,11.4,15.6,10,17.5 M2.1,11h3.4
	c0.2,2.3,0.9,4.6,2.2,6.7C4.7,16.8,2.5,14.2,2.1,11 M7.3,2.5C6.2,4.5,5.6,6.7,5.5,9H2.1C2.4,6,4.5,3.5,7.3,2.5 M10,2C10,2,10,2,10,2
	C10,2,10,2,10,2c1.6,2.1,2.4,4.5,2.6,7H7.5C7.6,6.5,8.4,4.1,10,2 M17.9,9h-3.4c-0.1-2.3-0.7-4.5-1.8-6.5C15.5,3.5,17.6,6,17.9,9
	 M10.9,0C4.9-0.5,0,4.2,0,10c0,5.4,4.3,9.8,9.7,10C15.4,20.2,20,15.6,20,10C20,4.8,16.1,0.5,10.9,0"/>
</svg>
