<?xml version="1.0" encoding="utf-8"?>
<!-- Generator: Adobe Illustrator 24.3.0, SVG Export Plug-In . SVG Version: 6.00 Build 0)  -->
<svg version="1.1" id="Layer_1" xmlns="http://www.w3.org/2000/svg" xmlns:xlink="http://www.w3.org/1999/xlink" x="0px" y="0px"
	 viewBox="0 0 231 67" style="enable-background:new 0 0 231 67;" xml:space="preserve">
<style type="text/css">
	.st0{fill:#FFFFFF;}
</style>
<g id="_x23_fff">
	<path class="st0" d="M21.8,62.1L21.8,62.1c0,2.5,2.1,4.6,4.6,4.6s4.6-2.1,4.6-4.6l0-10.7c0-8.4-6.8-15.3-15.3-15.3
		C7.3,36.1,0.5,43,0.5,51.4c0,8.4,6.8,15.3,15.3,15.3c2.5,0,4.6-2.1,4.6-4.6c0-2.5-2.1-4.6-4.6-4.6c-3.4,0-6.1-2.7-6.1-6.1
		c0-3.3,2.7-6.1,6.1-6.1c3.4,0,6.1,2.7,6.1,6.1L21.8,62.1z"/>
	<path class="st0" d="M27.1,33.9c-0.6,0-1.1-0.1-1.7-0.4c-3-1.6-6.3-2.4-9.7-2.4c-3.4,0-6.6,0.8-9.6,2.3c-1.8,0.9-3.9,0.2-4.8-1.5
		c-0.9-1.7-0.2-3.9,1.5-4.8c3.9-2.1,8.4-3.2,12.9-3.2c4.6,0,9.1,1.1,13.1,3.3c1.7,0.9,2.4,3.1,1.5,4.8
		C29.6,33.2,28.4,33.9,27.1,33.9z"/>
	<path class="st0" d="M54,56h-9l0,6.1c0,2.5-2.1,4.6-4.6,4.6c-2.5,0-4.6-2.1-4.6-4.6V40.7c0-2.5,2.1-4.6,4.6-4.6
		c2.5,0,4.6,2.1,4.6,4.6l0,6.1h9l0-6.1c0-2.5,2.1-4.6,4.6-4.6c2.5,0,4.6,2.1,4.6,4.6v21.3c0,2.5-2.1,4.6-4.6,4.6
		c-2.5,0-4.6-2.1-4.6-4.6L54,56z"/>
	<path class="st0" d="M69.9,36.1c-2.5,0-4.6,2.1-4.6,4.6c0,2.5,2.1,4.6,4.6,4.6h5.5l0,16.7c0,2.5,2.1,4.6,4.6,4.6
		c2.5,0,4.6-2.1,4.6-4.6v0h0V45.3h6c2.5,0,4.6-2.1,4.6-4.6c0-2.5-2.1-4.6-4.6-4.6H69.9z"/>
	<path class="st0" d="M110.2,36.1c-8.4,0-15.3,6.8-15.3,15.3c0,8.4,6.8,15.3,15.3,15.3c8.4,0,15.3-6.8,15.3-15.3
		C125.4,43,118.6,36.1,110.2,36.1z M110.2,57.5c-3.4,0-6.1-2.7-6.1-6.1c0-3.4,2.7-6.1,6.1-6.1c3.4,0,6.1,2.7,6.1,6.1
		C116.2,54.8,113.5,57.5,110.2,57.5z"/>
	<path class="st0" d="M101.1,33.5c-1.8,0-3.3-1.3-3.5-3.1C96,18.2,101.4,6.4,111,1.1c1.7-1,3.9-0.3,4.9,1.4c1,1.7,0.3,3.9-1.4,4.9
		c-6.9,3.9-10.9,13-9.8,22.2c0.2,2-1.1,3.7-3.1,4C101.4,33.5,101.3,33.5,101.1,33.5"/>
	<path class="st0" d="M110.5,32.7c-2,0-3.6-1.6-3.6-3.6c0-9.6,7.4-18.6,17.5-21.4c1.9-0.5,3.9,0.6,4.4,2.5c0.5,1.9-0.6,3.9-2.5,4.4
		c-7,1.9-12.3,8.1-12.3,14.5C114.1,31.1,112.5,32.7,110.5,32.7L110.5,32.7"/>
	<path class="st0" d="M120.2,33.8c-0.3,0-0.7,0-1-0.1c-1.9-0.6-3-2.5-2.4-4.4c2-6.8,7.7-10.8,15.6-11.2c2-0.1,3.6,1.5,3.7,3.4
		c0.1,2-1.5,3.6-3.4,3.7c-3.3,0.1-7.6,1.3-9,6.1C123.1,32.8,121.7,33.8,120.2,33.8"/>
	<path class="st0" d="M142.6,55.1c0,1.3-1,2.3-2.3,2.3c-1.3,0-2.4-1-2.4-2.3V40.7c0-2.5-2.1-4.6-4.6-4.6s-4.6,2.1-4.6,4.6l0,14.3
		c0,6.5,5,11.6,11.6,11.6c2.5,0,5-0.9,7-2.4c1.9,1.5,4.4,2.4,7,2.4c6.2,0,11.6-5.2,11.6-11.6l0-14.3c0-2.5-2.1-4.6-4.6-4.6
		s-4.6,2.1-4.6,4.6l0,14.4c0,1.3-1,2.3-2.3,2.3c-1.3,0-2.3-1-2.3-2.3l0-14.4c0-2.5-2.1-4.6-4.6-4.6c-2.5,0-4.6,2.1-4.6,4.6
		L142.6,55.1z"/>
	<path class="st0" d="M196.9,58.8c0.8,0.8,1.3,2,1.3,3.3c0,2.5-2.1,4.6-4.6,4.6c-1.3,0-2.4-0.5-3.3-1.3l-11.1-11.1l0,7.8
		c0,2.5-2.1,4.6-4.6,4.6c-2.5,0-4.6-2.1-4.6-4.6V40.7c0-2.5,2.1-4.6,4.6-4.6c2.5,0,4.6,2.1,4.6,4.6l0,7.9l11.1-11.1
		c0.8-0.8,2-1.3,3.3-1.3c2.5,0,4.6,2.1,4.6,4.6c0,1.3-0.5,2.4-1.3,3.3l-7.4,7.4L196.9,58.8z"/>
	<path class="st0" d="M215.2,66.7c-8.4,0-15.3-6.8-15.3-15.3c0-8.4,6.8-15.3,15.3-15.3c8.4,0,15.3,6.8,15.3,15.2l0,10.7
		c0,2.5-2.1,4.6-4.6,4.6s-4.6-2.1-4.6-4.6v0V51.4c0-3.3-2.7-6.1-6.1-6.1c-3.4,0-6.1,2.7-6.1,6.1c0,3.4,2.7,6.1,6.1,6.1
		c2.5,0,4.6,2.1,4.6,4.6C219.8,64.6,217.8,66.7,215.2,66.7z"/>
	<path class="st0" d="M209.6,30.3c0,2.3-1.9,4.2-4.2,4.2c-2.3,0-4.2-1.9-4.2-4.2c0-2.3,1.9-4.2,4.2-4.2
		C207.7,26.1,209.6,28,209.6,30.3"/>
	<path class="st0" d="M220.3,28.1c0,2.3-1.9,4.2-4.2,4.2c-2.3,0-4.2-1.9-4.2-4.2c0-2.3,1.9-4.2,4.2-4.2
		C218.4,23.9,220.3,25.8,220.3,28.1"/>
	<path class="st0" d="M230.3,30.2c0,2.3-1.9,4.2-4.2,4.2c-2.3,0-4.2-1.9-4.2-4.2c0-2.3,1.9-4.2,4.2-4.2
		C228.5,26,230.3,27.9,230.3,30.2"/>
</g>
</svg>
