<?xml version="1.0" encoding="utf-8"?>
<!-- Generator: Adobe Illustrator 24.3.0, SVG Export Plug-In . SVG Version: 6.00 Build 0)  -->
<svg version="1.1" id="Layer_1" xmlns="http://www.w3.org/2000/svg" xmlns:xlink="http://www.w3.org/1999/xlink" x="0px" y="0px"
	 viewBox="0 0 20 16" style="enable-background:new 0 0 20 16;" xml:space="preserve">
<style type="text/css">
	.st0{fill-rule:evenodd;clip-rule:evenodd;fill:#FFFFFF;}
</style>
<path id="_xD83D__xDD39_Icon-Color" class="st0" d="M18,0H2C0.9,0,0,0.9,0,2l0,12c0,1.1,0.9,2,2,2h16c1.1,0,2-0.9,2-2V2
	C20,0.9,19.1,0,18,0z M17,14H3c-0.6,0-1-0.5-1-1V4l6.9,4.3c0.7,0.4,1.5,0.4,2.1,0L18,4v9C18,13.6,17.5,14,17,14z M10,7L2,2h16L10,7z
	"/>
</svg>
